<svg xmlns="http://www.w3.org/2000/svg" viewBox="0 -12 70 70" style="enable-background:new 0 0 499.999 499.999;" xml:space="preserve"><g fill="#ffffff" fill-rule="evenodd"><path d="M64 37C64 33.1340068 60.8659932 30 57 30 53.1340068 30 50 33.1340068 50 37 50 40.8659932 53.1340068 44 57 44 60.8659932 44 64 40.8659932 64 37zM54 37C54 35.3431458 55.3431458 34 57 34 58.6568542 34 60 35.3431458 60 37 60 38.6568542 58.6568542 40 57 40 55.3431458 40 54 38.6568542 54 37zM37 33C37 26.9248678 32.0751322 22 26 22 19.9248678 22 15 26.9248678 15 33 15 39.0751322 19.9248678 44 26 44 32.0751322 44 37 39.0751322 37 33zM19 33C19 29.1340068 22.1340068 26 26 26 29.8659932 26 33 29.1340068 33 33 33 36.8659932 29.8659932 40 26 40 22.1340068 40 19 36.8659932 19 33z"/><path d="M19.9270358,23.4647123 C20.2810335,24.7391039 19.3226444,26 18,26 L9.47527705,26 L5.7199707,38 L11,38 C12.6147361,38 14.1233868,37.3618946 15.2426407,36.2426407 C16.0236893,35.4615921 17.2900192,35.4615921 18.0710678,36.2426407 C18.8521164,37.0236893 18.8521164,38.2900192 18.0710678,39.0710678 C16.2091048,40.9330308 13.6865064,42 11,42 L2.99999997,42 C1.6507195,42 0.688583394,40.6913112 1.09104002,39.40345 L6.09104002,23.40345 C6.35196202,22.5684996 7.12523004,21.9999999 7.99999998,21.9999999 L15.3781418,22 L11.4798287,8 L11,8 C9.8954305,8 9,7.1045695 9,6 C9,4.8954305 9.8954305,4 11,4 L12.9562393,4 C12.9862328,3.99932191 13.0161497,3.99932555 13.0459729,4 L27,4 C28.1045695,4 29,4.8954305 29,6 C29,7.1045695 28.1045695,8 27,8 L15.6312824,8 L19.9270358,23.4647123 Z"/><path d="M66,37 L67,37 C68.1045695,37 69,36.1045695 69,35 L69,14 C69,13.0223217 68.2931739,12.1879415 67.328798,12.0272122 L56,10 L50.7149859,0.971008489 C50.3535394,0.368597668 49.7025257,0 49,0 L27,0 C25.8954305,0 25,0.8954305 25,2 L25,20.0378896 C25.3300416,20.0127829 25.663528,20 26,20 C33.1797017,20 39,25.8202983 39,33 C39,34.3956202 38.7800789,35.739875 38.3730012,37 L48,37 C48,32.0294373 52.0294373,28 57,28 C61.9705627,28 66,32.0294373 66,37 L66,37 Z M56,20 L38.9933977,20 C38.4449463,20 38,19.5480902 38,18.9906311 L38,17.0093689 C38,16.4433532 38.4440454,16 38.9918031,16 L58,16 C59.1045695,16 60,16.8954305 60,18 L60,22.0001925 C60,22.5562834 59.5480902,23 58.9906311,23 L57.0093689,23 C56.4433532,23 56,22.5527519 56,22.0010434 L56,20 L56,20 Z"/></g></svg>