<svg xmlns="http://www.w3.org/2000/svg" viewBox="0 0 319.58 107.67"><defs><style>.cls-1{fill:#fab416;}.cls-2{font-size:55.36px;}.cls-2,.cls-3{fill:#fff;font-family:Raleway-SemiBold, Raleway;font-weight:600;}.cls-3{font-size:38.75px;}</style></defs><title>Ресурс 10</title><g id="Слой_2" data-name="Слой 2"><g id="Слой_1-2" data-name="Слой 1"><path class="cls-1" d="M27.2,106.72A19.87,19.87,0,0,1,26,90.47a25.25,25.25,0,0,1,3.89-4.91,35.68,35.68,0,0,1,5.86-4.41c1.89-1.25,4.36-2.85,7.33-4.67a22.21,22.21,0,0,1,0,18.93,37.45,37.45,0,0,1-6.84,6.48A36.94,36.94,0,0,1,27.2,106.72Z"/><path class="cls-1" d="M27.2,81.59A19.89,19.89,0,0,1,26,65.33a25.55,25.55,0,0,1,3.89-4.91A36.44,36.44,0,0,1,35.72,56c1.89-1.25,4.36-2.86,7.33-4.68a22.22,22.22,0,0,1,0,18.93A37.12,37.12,0,0,1,27.2,81.59Z"/><path class="cls-1" d="M27.2,56.15A19.87,19.87,0,0,1,26,39.9,25.25,25.25,0,0,1,29.86,35a35.68,35.68,0,0,1,5.86-4.41c1.89-1.25,4.36-2.85,7.33-4.67a22.22,22.22,0,0,1,0,18.93,37.45,37.45,0,0,1-6.84,6.48A36.94,36.94,0,0,1,27.2,56.15Z"/><path class="cls-1" d="M18,56.15a19.86,19.86,0,0,0,2.37-8,19.78,19.78,0,0,0-1.14-8.23A24.86,24.86,0,0,0,15.3,35a35.21,35.21,0,0,0-5.86-4.41c-1.89-1.25-4.36-2.85-7.32-4.67a22.22,22.22,0,0,0,0,18.93A37.12,37.12,0,0,0,9,51.32,36.73,36.73,0,0,0,18,56.15Z"/><path class="cls-1" d="M18,81.59a19.87,19.87,0,0,0,2.37-8,19.81,19.81,0,0,0-1.14-8.23,25.16,25.16,0,0,0-3.89-4.91A36,36,0,0,0,9.44,56c-1.89-1.25-4.36-2.86-7.32-4.68a22.22,22.22,0,0,0,0,18.93A36.79,36.79,0,0,0,9,76.75,37.16,37.16,0,0,0,18,81.59Z"/><path class="cls-1" d="M18,106.72a19.86,19.86,0,0,0,2.37-8,19.78,19.78,0,0,0-1.14-8.23,24.86,24.86,0,0,0-3.89-4.91,35.21,35.21,0,0,0-5.86-4.41C7.55,79.9,5.08,78.3,2.12,76.48a22.21,22.21,0,0,0,0,18.93A37.12,37.12,0,0,0,9,101.89,36.73,36.73,0,0,0,18,106.72Z"/><path class="cls-1" d="M23,35.87a21.14,21.14,0,0,1-6.18-6.24,21.47,21.47,0,0,1-3.29-12.21,23.92,23.92,0,0,1,2.2-6.86c.83-1.67,1.54-2.55,3.84-6.17C20.75,2.52,21.69,1,22.29,0a19.71,19.71,0,0,1,7.57,8.37,19.6,19.6,0,0,1,1.78,9.94,30.17,30.17,0,0,1-1.58,5.44,41.77,41.77,0,0,1-3.36,6.36C25.82,31.59,24.58,33.57,23,35.87Z"/><text class="cls-2" transform="translate(57.85 59.66)">ВЕСТНИК</text><text class="cls-3" transform="translate(57.85 98.87)">Вятской ГСХА</text></g></g></svg>